<svg xmlns="http://www.w3.org/2000/svg" xmlns:xlink="http://www.w3.org/1999/xlink" version="1.1" x="0px" y="0px" viewBox="0 0 100 100" enable-background="new 0 0 100 100" xml:space="preserve"><g><polygon points="43.6,30.7 43.6,24.3 37.1,24.3 37.1,30.7 37.1,37.1 43.6,37.1  "/><rect x="62.9" y="43.6" width="6.4" height="6.4"/><polygon points="82.1,37.1 82.1,41.2 82.1,43.6 82.1,50 88.6,50 88.6,43.6 88.6,41.2 88.6,37.1  "/><polygon points="56.4,37.1 50,37.1 43.6,37.1 43.6,43.6 50,43.6 50,43.6 50,50 56.4,50 56.4,43.6 62.9,43.6 62.9,37.1  "/><rect x="56.4" y="50" width="6.4" height="6.4"/><polygon points="69.3,50 69.3,56.4 75.7,56.4 82.1,56.4 82.1,50 75.7,50  "/><rect x="43.6" y="50" width="6.4" height="6.4"/><rect x="37.1" y="56.4" width="6.4" height="6.4"/><rect x="50" y="56.4" width="6.4" height="6.4"/><rect x="30.7" y="62.9" width="6.4" height="6.4"/><rect x="43.6" y="62.9" width="6.4" height="6.4"/><rect x="24.3" y="69.3" width="6.4" height="6.4"/><rect x="37.1" y="69.3" width="6.4" height="6.4"/><rect x="17.9" y="75.7" width="6.4" height="6.4"/><rect x="30.7" y="75.7" width="6.4" height="6.4"/><polygon points="17.9,82.1 11.4,82.1 11.4,88.6 11.4,95 17.9,95 24.3,95 24.3,88.6 17.9,88.6  "/><rect x="24.3" y="82.1" width="6.4" height="6.4"/><polygon points="69.3,11.4 69.3,5 62.9,5 56.4,5 56.4,11.4 62.9,11.4  "/><rect x="50" y="11.4" width="6.4" height="6.4"/><polygon points="75.7,24.3 75.7,24.3 75.7,17.9 75.7,11.4 69.3,11.4 69.3,17.9 69.3,24.3 69.3,24.3 69.3,25.8 69.3,30.7 75.7,30.7    75.7,37.1 82.1,37.1 82.1,30.7 82.1,29.2 82.1,24.3  "/><rect x="43.6" y="17.9" width="6.4" height="6.4"/></g></svg>